#Comment line ignore any data following # character 
#Hierarchical Translation and Rotation (.htr) file 
[Header]	
#Header keywords are followed by a single value 
FileType HTR		#Single word string
DataType HTRS		#Translation followed by rotation and scale data
FileVersion 1		#integer
NumSegments 84		#integer
NumFrames 2		#integer
DataFrameRate 30		#integer, data frame rate in this file
EulerRotationOrder ZYX
CalibrationUnits mm
RotationUnits Degrees
GlobalAxisofGravity Y
BoneLengthAxis Y
ScaleFactor 1.00
[SegmentNames&Hierarchy]
#CHILD	PARENT
MASTER GLOBAL
root MASTER
chest root
L_mid_tent01 root
R_mid_tent01 root
spine01 root
Bip01_Neck chest
L_humerus chest
R_humerus chest
weapon_bone chest
Bip01_Head Bip01_Neck
eye_left_bone Bip01_Head
eye_right_bone Bip01_Head
L_forearm L_humerus
L_front_hand L_forearm
L_weapon_bone L_forearm
L_front_hand01_01 L_front_hand
L_front_hand02_01 L_front_hand
L_front_hand03_01 L_front_hand
L_front_hand01_02 L_front_hand01_01
L_front_hand02_02 L_front_hand02_01
L_front_hand03_02 L_front_hand03_01
R_forearm R_humerus
R_front_hand R_forearm
R_weapon_bone R_forearm
R_front_hand01_01 R_front_hand
R_front_hand02_01 R_front_hand
R_front_hand03_01 R_front_hand
R_front_hand01_02 R_front_hand01_01
R_front_hand02_02 R_front_hand02_01
R_front_hand03_02 R_front_hand03_01
null_rope01_connect L_mid_tent01
Rope1_Seg01 null_rope01_connect
Rope1_Seg02 Rope1_Seg01
Rope1_Seg03 Rope1_Seg02
Rope1_Seg04 Rope1_Seg03
Rope1_Seg05 Rope1_Seg04
Rope1_Seg06 Rope1_Seg05
Rope1_Seg07 Rope1_Seg06
Rope1_Seg09 Rope1_Seg07
L_mid_hand01 Rope1_Seg09
L_mid_hand02 Rope1_Seg09
L_mid_hand03 Rope1_Seg09
null_rope02_connect R_mid_tent01
Rope2_Seg01 null_rope02_connect
Rope2_Seg02 Rope2_Seg01
Rope2_Seg03 Rope2_Seg02
Rope2_Seg04 Rope2_Seg03
Rope2_Seg05 Rope2_Seg04
Rope2_Seg06 Rope2_Seg05
Rope2_Seg07 Rope2_Seg06
Rope2_Seg09 Rope2_Seg07
R_mid_hand01 Rope2_Seg09
R_mid_hand02 Rope2_Seg09
R_mid_hand03 Rope2_Seg09
spine02 spine01
spine03 spine02
pelvis spine03
null_rope03_connect pelvis
null_rope04_connect pelvis
Rope3_Seg01 null_rope03_connect
Rope3_Seg02 Rope3_Seg01
Rope3_Seg03 Rope3_Seg02
Rope3_Seg04 Rope3_Seg03
Rope3_Seg05 Rope3_Seg04
Rope3_Seg06 Rope3_Seg05
Rope3_Seg07 Rope3_Seg06
Rope3_Seg08 Rope3_Seg07
Rope3_Seg09 Rope3_Seg08
R_rear_hand01 Rope3_Seg09
R_rear_hand02 Rope3_Seg09
R_rear_hand03 Rope3_Seg09
Rope4_Seg01 null_rope04_connect
Rope4_Seg02 Rope4_Seg01
Rope4_Seg03 Rope4_Seg02
Rope4_Seg04 Rope4_Seg03
Rope4_Seg05 Rope4_Seg04
Rope4_Seg06 Rope4_Seg05
Rope4_Seg07 Rope4_Seg06
Rope4_Seg08 Rope4_Seg07
Rope4_Seg09 Rope4_Seg08
L_rear_hand01 Rope4_Seg09
L_rear_hand02 Rope4_Seg09
L_rear_hand03 Rope4_Seg09
[BasePosition]
#SegmentName Tx, Ty, Tz, Rx, Ry, Rz, BoneLength
MASTER 0.000000 0.000000 0.000000 -90.000000 0.000000 0.000000 10.000000 
root 0.000000 0.000000 0.000000 0.000000 0.000000 0.000000 10.000000 
chest 0.000000 0.000000 0.000000 0.000000 0.000000 0.000000 10.000000 
L_mid_tent01 0.000000 0.000000 0.000000 0.000000 0.000000 0.000000 10.000000 
R_mid_tent01 0.000000 0.000000 0.000000 0.000000 0.000000 0.000000 10.000000 
spine01 0.000000 0.000000 0.000000 0.000000 0.000000 0.000000 10.000000 
Bip01_Neck 0.000000 0.000000 0.000000 0.000000 0.000000 0.000000 10.000000 
L_humerus 0.000000 0.000000 0.000000 0.000000 0.000000 0.000000 10.000000 
R_humerus 0.000000 0.000000 0.000000 0.000000 0.000000 0.000000 10.000000 
weapon_bone 0.000000 0.000000 0.000000 0.000000 0.000000 0.000000 10.000000 
Bip01_Head 0.000000 0.000000 0.000000 0.000000 0.000000 0.000000 10.000000 
eye_left_bone 0.000000 0.000000 0.000000 0.000000 0.000000 0.000000 10.000000 
eye_right_bone 0.000000 0.000000 0.000000 0.000000 0.000000 0.000000 10.000000 
L_forearm 0.000000 0.000000 0.000000 0.000000 0.000000 0.000000 10.000000 
L_front_hand 0.000000 0.000000 0.000000 0.000000 0.000000 0.000000 10.000000 
L_weapon_bone 0.000000 0.000000 0.000000 0.000000 0.000000 0.000000 10.000000 
L_front_hand01_01 0.000000 0.000000 0.000000 0.000000 0.000000 0.000000 10.000000 
L_front_hand02_01 0.000000 0.000000 0.000000 0.000000 0.000000 0.000000 10.000000 
L_front_hand03_01 0.000000 0.000000 0.000000 0.000000 0.000000 0.000000 10.000000 
L_front_hand01_02 0.000000 0.000000 0.000000 0.000000 0.000000 0.000000 10.000000 
L_front_hand02_02 0.000000 0.000000 0.000000 0.000000 0.000000 0.000000 10.000000 
L_front_hand03_02 0.000000 0.000000 0.000000 0.000000 0.000000 0.000000 10.000000 
R_forearm 0.000000 0.000000 0.000000 0.000000 0.000000 0.000000 10.000000 
R_front_hand 0.000000 0.000000 0.000000 0.000000 0.000000 0.000000 10.000000 
R_weapon_bone 0.000000 0.000000 0.000000 0.000000 0.000000 0.000000 10.000000 
R_front_hand01_01 0.000000 0.000000 0.000000 0.000000 0.000000 0.000000 10.000000 
R_front_hand02_01 0.000000 0.000000 0.000000 0.000000 0.000000 0.000000 10.000000 
R_front_hand03_01 0.000000 0.000000 0.000000 0.000000 0.000000 0.000000 10.000000 
R_front_hand01_02 0.000000 0.000000 0.000000 0.000000 0.000000 0.000000 10.000000 
R_front_hand02_02 0.000000 0.000000 0.000000 0.000000 0.000000 0.000000 10.000000 
R_front_hand03_02 0.000000 0.000000 0.000000 0.000000 0.000000 0.000000 10.000000 
null_rope01_connect 0.000000 0.000000 0.000000 0.000000 0.000000 0.000000 10.000000 
Rope1_Seg01 0.000000 0.000000 0.000000 0.000000 0.000000 0.000000 10.000000 
Rope1_Seg02 0.000000 0.000000 0.000000 0.000000 0.000000 0.000000 10.000000 
Rope1_Seg03 0.000000 0.000000 0.000000 0.000000 0.000000 0.000000 10.000000 
Rope1_Seg04 0.000000 0.000000 0.000000 0.000000 0.000000 0.000000 10.000000 
Rope1_Seg05 0.000000 0.000000 0.000000 0.000000 0.000000 0.000000 10.000000 
Rope1_Seg06 0.000000 0.000000 0.000000 0.000000 0.000000 0.000000 10.000000 
Rope1_Seg07 0.000000 0.000000 0.000000 0.000000 0.000000 0.000000 10.000000 
Rope1_Seg09 0.000000 0.000000 0.000000 0.000000 0.000000 0.000000 10.000000 
L_mid_hand01 0.000000 0.000000 0.000000 0.000000 0.000000 0.000000 10.000000 
L_mid_hand02 0.000000 0.000000 0.000000 0.000000 0.000000 0.000000 10.000000 
L_mid_hand03 0.000000 0.000000 0.000000 0.000000 0.000000 0.000000 10.000000 
null_rope02_connect 0.000000 0.000000 0.000000 0.000000 0.000000 0.000000 10.000000 
Rope2_Seg01 0.000000 0.000000 0.000000 0.000000 0.000000 0.000000 10.000000 
Rope2_Seg02 0.000000 0.000000 0.000000 0.000000 0.000000 0.000000 10.000000 
Rope2_Seg03 0.000000 0.000000 0.000000 0.000000 0.000000 0.000000 10.000000 
Rope2_Seg04 0.000000 0.000000 0.000000 0.000000 0.000000 0.000000 10.000000 
Rope2_Seg05 0.000000 0.000000 0.000000 0.000000 0.000000 0.000000 10.000000 
Rope2_Seg06 0.000000 0.000000 0.000000 0.000000 0.000000 0.000000 10.000000 
Rope2_Seg07 0.000000 0.000000 0.000000 0.000000 0.000000 0.000000 10.000000 
Rope2_Seg09 0.000000 0.000000 0.000000 0.000000 0.000000 0.000000 10.000000 
R_mid_hand01 0.000000 0.000000 0.000000 0.000000 0.000000 0.000000 10.000000 
R_mid_hand02 0.000000 0.000000 0.000000 0.000000 0.000000 0.000000 10.000000 
R_mid_hand03 0.000000 0.000000 0.000000 0.000000 0.000000 0.000000 10.000000 
spine02 0.000000 0.000000 0.000000 0.000000 0.000000 0.000000 10.000000 
spine03 0.000000 0.000000 0.000000 0.000000 0.000000 0.000000 10.000000 
pelvis 0.000000 0.000000 0.000000 0.000000 0.000000 0.000000 10.000000 
null_rope03_connect 0.000000 0.000000 0.000000 0.000000 0.000000 0.000000 10.000000 
null_rope04_connect 0.000000 0.000000 0.000000 0.000000 0.000000 0.000000 10.000000 
Rope3_Seg01 0.000000 0.000000 0.000000 0.000000 0.000000 0.000000 10.000000 
Rope3_Seg02 0.000000 0.000000 0.000000 0.000000 0.000000 0.000000 10.000000 
Rope3_Seg03 0.000000 0.000000 0.000000 0.000000 0.000000 0.000000 10.000000 
Rope3_Seg04 0.000000 0.000000 0.000000 0.000000 0.000000 0.000000 10.000000 
Rope3_Seg05 0.000000 0.000000 0.000000 0.000000 0.000000 0.000000 10.000000 
Rope3_Seg06 0.000000 0.000000 0.000000 0.000000 0.000000 0.000000 10.000000 
Rope3_Seg07 0.000000 0.000000 0.000000 0.000000 0.000000 0.000000 10.000000 
Rope3_Seg08 0.000000 0.000000 0.000000 0.000000 0.000000 0.000000 10.000000 
Rope3_Seg09 0.000000 0.000000 0.000000 0.000000 0.000000 0.000000 10.000000 
R_rear_hand01 0.000000 0.000000 0.000000 0.000000 0.000000 0.000000 10.000000 
R_rear_hand02 0.000000 0.000000 0.000000 0.000000 0.000000 0.000000 10.000000 
R_rear_hand03 0.000000 0.000000 0.000000 0.000000 0.000000 0.000000 10.000000 
Rope4_Seg01 0.000000 0.000000 0.000000 0.000000 0.000000 0.000000 10.000000 
Rope4_Seg02 0.000000 0.000000 0.000000 0.000000 0.000000 0.000000 10.000000 
Rope4_Seg03 0.000000 0.000000 0.000000 0.000000 0.000000 0.000000 10.000000 
Rope4_Seg04 0.000000 0.000000 0.000000 0.000000 0.000000 0.000000 10.000000 
Rope4_Seg05 0.000000 0.000000 0.000000 0.000000 0.000000 0.000000 10.000000 
Rope4_Seg06 0.000000 0.000000 0.000000 0.000000 0.000000 0.000000 10.000000 
Rope4_Seg07 0.000000 0.000000 0.000000 0.000000 0.000000 0.000000 10.000000 
Rope4_Seg08 0.000000 0.000000 0.000000 0.000000 0.000000 0.000000 10.000000 
Rope4_Seg09 0.000000 0.000000 0.000000 0.000000 0.000000 0.000000 10.000000 
L_rear_hand01 0.000000 0.000000 0.000000 0.000000 0.000000 0.000000 10.000000 
L_rear_hand02 0.000000 0.000000 0.000000 0.000000 0.000000 0.000000 10.000000 
L_rear_hand03 0.000000 0.000000 0.000000 0.000000 0.000000 0.000000 10.000000 
#Beginning of Data. Separated by tabs
#Fr	Tx	Ty	Tz	Rx	Ry	Rz	SF
[MASTER]
30 1961.291504 -5886.789551 0.000000 0.000568 -0.002278 -117.992882 6204.913574
31 1993.016724 -6102.665527 0.000000 0.000570 -0.002277 -118.085190 6419.862793
[root]
30 -62.822147 99.750549 1155.906128 -86.208199 -4.694323 179.953079 1161.901733
31 -62.822201 92.154579 1161.835205 -85.989449 -4.576399 -179.820618 1167.176147
[chest]
30 -84.512650 -34.090519 0.000000 -0.557391 -0.588204 156.371124 91.129311
31 -84.512650 -34.090519 0.000000 -0.307809 -0.743093 156.385437 91.129311
[L_mid_tent01]
30 23.228750 24.509907 -223.761200 -14.445082 2.042953 -12.335826 226.294907
31 23.228750 24.509907 -223.761200 -14.455502 3.224599 -14.542124 226.294907
[R_mid_tent01]
30 23.228794 24.509907 226.238495 -163.823502 -21.686327 -5.740459 228.744751
31 23.228794 24.509907 226.238495 -162.915604 -16.550741 -4.300122 228.744751
[spine01]
30 -0.361383 -0.195265 0.000000 0.001815 0.001488 11.320962 0.410763
31 -0.361383 -0.195265 0.000000 0.001815 0.001488 11.320964 0.410763
[Bip01_Neck]
30 165.484543 71.581718 0.000119 175.896118 1.177290 24.871183 180.302734
31 165.484543 71.581718 0.000119 175.896118 1.177290 24.871187 180.302734
[L_humerus]
30 -13.983130 -135.272980 -120.471481 26.617073 75.714355 128.954269 181.680161
31 -13.983130 -135.272980 -120.471481 16.628912 72.271629 119.700554 181.680161
[R_humerus]
30 -13.983309 -135.273102 125.287651 -16.112597 -85.983902 115.372688 184.909012
31 -13.983309 -135.273102 125.287651 1.562240 -81.829750 98.107452 184.909012
[weapon_bone]
30 235.964890 -300.705902 0.000000 0.000000 -89.951546 -128.212341 382.234833
31 235.964890 -300.705902 0.000000 0.000000 -89.951546 -128.212341 382.234833
[Bip01_Head]
30 201.313721 211.516754 15.929725 -5.476843 5.095404 -64.551247 292.438538
31 201.313721 211.516754 15.929725 -4.615191 5.502964 -64.610985 292.438538
[eye_left_bone]
30 -24.626970 125.451866 -64.772606 0.000000 -90.000000 -99.840431 143.318359
31 -24.626970 125.451866 -64.772606 0.000000 -90.000000 -99.840431 143.318359
[eye_right_bone]
30 -24.626970 125.451866 64.327362 0.000000 -89.965736 80.156380 143.117676
31 -24.626970 125.451866 64.327362 0.000000 -90.000000 80.156387 143.117676
[L_forearm]
30 322.776093 0.000000 -0.000119 0.000357 -0.002320 -107.506004 322.776093
31 322.776093 0.000000 -0.000119 0.000357 -0.002320 -107.506004 322.776093
[L_front_hand]
30 241.149185 -0.042021 -3.300071 -179.431961 -2.195943 -5.942918 241.171753
31 241.149185 -0.042021 -3.300071 -179.431961 -2.195943 -5.942919 241.171753
[L_weapon_bone]
30 156.183838 0.000000 0.000000 0.000014 0.000007 0.000001 156.183838
31 156.183838 0.000000 0.000000 0.000014 0.000007 0.000001 156.183838
[L_front_hand01_01]
30 86.095154 20.947098 -0.655860 0.139491 -0.584553 24.181786 88.609184
31 86.095154 20.947098 -0.655860 0.139491 -0.584553 24.181786 88.609184
[L_front_hand02_01]
30 86.935165 -11.437475 24.513514 119.190460 -21.905655 -12.119137 91.046425
31 86.935165 -11.437475 24.513514 119.190475 -21.905661 -12.119139 91.046425
[L_front_hand03_01]
30 86.637497 -14.123976 -20.424902 -120.437630 20.554037 -14.327168 90.126129
31 86.637497 -14.123976 -20.424902 -120.437645 20.554039 -14.327170 90.126129
[L_front_hand01_02]
30 71.020905 -0.000179 0.000030 0.000334 -0.002323 -106.379684 71.020905
31 71.020905 -0.000179 0.000030 0.000334 -0.002323 -106.379700 71.020905
[L_front_hand02_02]
30 71.020927 -0.000119 0.000060 0.000334 -0.002323 -106.379684 71.020927
31 71.020927 -0.000119 0.000060 0.000334 -0.002323 -106.379700 71.020927
[L_front_hand03_02]
30 71.020905 -0.000060 0.000060 0.000334 -0.002323 -106.379684 71.020905
31 71.020905 -0.000060 0.000060 0.000334 -0.002323 -106.379700 71.020905
[R_forearm]
30 322.776428 -0.000060 0.000030 0.196737 0.083011 -114.368637 322.776428
31 322.776428 -0.000060 0.000030 0.196737 0.083011 -114.368637 322.776428
[R_front_hand]
30 238.847015 -0.006795 2.210259 -0.341870 1.692706 -0.151780 238.857239
31 238.847015 -0.006795 2.210259 -0.341870 1.692706 -0.151780 238.857239
[R_weapon_bone]
30 155.664093 0.002503 -0.000030 0.003487 0.001180 -90.988930 155.664078
31 155.664093 0.002503 -0.000030 0.003487 0.001180 -90.988930 155.664078
[R_front_hand01_01]
30 87.624611 14.231146 22.918642 -119.218056 -22.033409 12.303375 91.683487
31 87.624611 14.231146 22.918642 -119.218071 -22.033411 12.303377 91.683487
[R_front_hand02_01]
30 89.356956 14.367283 -19.491137 120.545532 20.947184 14.823009 92.579636
31 89.356956 14.367283 -19.491137 120.545532 20.947189 14.823011 92.579636
[R_front_hand03_01]
30 87.286232 -22.307278 -0.143439 -0.231628 -0.392922 -24.567768 90.091743
31 87.286232 -22.307278 -0.143439 -0.231628 -0.392922 -24.567768 90.091743
[R_front_hand01_02]
30 71.020905 0.000060 0.000119 0.002323 -0.000334 106.381714 71.020905
31 71.020905 0.000060 0.000119 0.002323 -0.000334 106.381729 71.020905
[R_front_hand02_02]
30 71.020844 -0.000030 -0.000119 0.002323 -0.000334 106.381714 71.020836
31 71.020844 -0.000030 -0.000119 0.002323 -0.000334 106.381729 71.020836
[R_front_hand03_02]
30 71.020905 0.000000 0.000030 0.002323 -0.000334 106.381714 71.020905
31 71.020905 0.000000 0.000030 0.002323 -0.000334 106.381729 71.020905
[null_rope01_connect]
30 328.732483 0.000000 -0.000238 106.611877 54.957710 30.818281 328.732483
31 328.732483 0.000000 -0.000238 104.702957 53.759350 30.987759 328.732483
[Rope1_Seg01]
30 0.000148 0.000000 -0.000003 108.423958 -21.721535 -11.171629 0.000148
31 0.000153 0.000000 0.000000 85.308769 -20.566044 26.964369 0.000153
[Rope1_Seg02]
30 139.999863 -0.000179 0.000000 -1.559840 10.891576 -1.369308 139.999863
31 139.999863 -0.000179 0.000000 -1.596967 1.725536 1.590296 139.999863
[Rope1_Seg03]
30 139.999924 0.000060 -0.000060 -2.797238 11.183496 -1.529845 139.999924
31 139.999924 0.000060 -0.000060 -2.040848 2.060411 2.250751 139.999924
[Rope1_Seg04]
30 139.999924 -0.000060 -0.000119 -3.925228 11.004872 -2.375134 139.999924
31 139.999924 -0.000060 -0.000119 -4.166372 3.235332 6.700447 139.999924
[Rope1_Seg05]
30 139.999832 0.000119 -0.000060 -5.081826 7.762421 3.011302 139.999832
31 139.999832 0.000119 -0.000060 1.296023 1.926891 -5.177312 139.999832
[Rope1_Seg06]
30 139.999954 0.000119 -0.000060 -3.618806 3.151868 4.858467 139.999954
31 139.999954 0.000119 -0.000060 2.939573 0.073805 -5.509882 139.999954
[Rope1_Seg07]
30 139.999985 0.000060 0.000000 -2.102454 2.243756 2.464057 139.999985
31 139.999985 0.000060 0.000000 0.800550 0.175786 -1.560036 139.999985
[Rope1_Seg09]
30 121.602913 0.000119 -0.000089 -89.793175 -1.359789 0.847147 121.602913
31 121.602913 0.000119 -0.000089 -89.793175 -1.359789 0.847147 121.602913
[L_mid_hand01]
30 103.859421 1.038730 8.195221 106.855484 -31.239275 -9.461397 104.187431
31 103.859421 1.038730 8.195221 106.855484 -31.239275 -9.461397 104.187431
[L_mid_hand02]
30 105.572853 -4.139662 -10.864139 -142.331345 25.752670 -28.774628 106.211075
31 105.572853 -4.139662 -10.864139 -142.331345 25.752670 -28.774628 106.211075
[L_mid_hand03]
30 104.641464 17.579376 -3.913581 -16.122810 9.734291 34.223598 106.179977
31 104.641464 17.579376 -3.913581 -16.122810 9.734291 34.223598 106.179977
[null_rope02_connect]
30 328.732849 0.000179 -0.000119 -168.564194 -74.137672 66.605545 328.732849
31 328.732849 0.000179 -0.000119 -156.331512 -70.117012 54.855530 328.732849
[Rope2_Seg01]
30 -0.000151 -0.000005 -0.000005 83.426361 -63.898399 73.009384 0.000151
31 -0.000153 0.000000 0.000000 70.129646 -22.212910 98.446777 0.000153
[Rope2_Seg02]
30 139.999741 -0.000060 -0.000119 -0.475983 3.921994 -27.112440 139.999756
31 139.999741 -0.000060 -0.000119 1.878983 -7.728354 -0.125264 139.999756
[Rope2_Seg03]
30 140.000107 0.000030 0.000000 2.364997 -0.621007 -12.705663 140.000107
31 140.000107 0.000030 0.000000 -2.029872 -5.589681 7.053180 140.000107
[Rope2_Seg04]
30 139.999802 0.000000 -0.000060 6.514066 -5.674240 -20.814920 139.999802
31 139.999802 0.000000 -0.000060 2.168422 -7.512266 -3.918793 139.999802
[Rope2_Seg05]
30 139.999985 -0.000060 0.000119 3.238664 -3.734465 -9.972326 139.999985
31 139.999985 -0.000060 0.000119 8.737653 -9.928481 -25.474800 139.999985
[Rope2_Seg06]
30 139.999893 -0.000030 -0.000119 1.568778 -2.093404 -5.010236 139.999893
31 139.999893 -0.000030 -0.000119 2.996961 -5.693582 -10.215923 139.999893
[Rope2_Seg07]
30 139.999893 0.000060 -0.000060 0.960762 -1.411796 -3.146492 139.999893
31 139.999893 0.000060 -0.000060 1.097062 -2.990567 -4.406670 139.999893
[Rope2_Seg09]
30 121.338966 0.000089 -0.000060 33.793236 -1.359788 -0.847141 121.338966
31 121.338966 0.000089 -0.000060 33.793236 -1.359788 -0.847141 121.338966
[R_mid_hand01]
30 104.680779 11.144459 -10.335981 -41.523792 25.424656 28.595957 105.778534
31 104.680779 11.144459 -10.335981 -41.523792 25.424656 28.595957 105.778534
[R_mid_hand02]
30 104.070427 2.443552 8.231699 72.847389 -32.746803 10.013901 104.424065
31 104.070427 2.443552 8.231699 72.847389 -32.746803 10.013901 104.424065
[R_mid_hand03]
30 106.028137 -11.221827 -5.996406 -167.901306 10.259192 -37.009720 106.788818
31 106.028137 -11.221827 -5.996406 -167.901306 10.259192 -37.009720 106.788818
[spine02]
30 129.756927 0.001550 0.000119 0.001147 -1.797837 -7.854275 129.756927
31 129.756927 0.001550 0.000119 0.001147 -1.797838 -7.854276 129.756927
[spine03]
30 79.115631 0.000000 -0.000119 1.459971 -2.848092 23.765963 79.115631
31 79.115631 0.000000 -0.000119 1.459971 -2.848092 23.765966 79.115631
[pelvis]
30 169.435242 0.051022 0.000000 -0.000005 0.000003 -4.322055 169.435257
31 169.435242 0.051022 0.000000 -0.000005 0.000003 -4.322055 169.435257
[null_rope03_connect]
30 -1.257226 -2.466202 137.391083 74.894928 65.512077 -31.733953 137.418976
31 -1.257226 -2.466202 137.391083 74.264839 65.592384 -32.421612 137.418976
[null_rope04_connect]
30 -1.259640 -2.480268 -137.844437 74.894928 65.512077 -31.733953 137.872513
31 -1.259640 -2.480268 -137.844437 74.264839 65.592384 -32.421612 137.872513
[Rope3_Seg01]
30 0.000148 0.000000 -0.000003 -131.944031 7.562864 89.761147 0.000148
31 0.000153 0.000000 0.000000 -130.991760 6.126286 99.255417 0.000153
[Rope3_Seg02]
30 139.999924 -0.000119 0.000060 1.067289 5.406074 3.265945 139.999924
31 139.999924 -0.000119 0.000060 0.558427 5.255411 3.711436 139.999924
[Rope3_Seg03]
30 139.999924 -0.000119 0.000119 1.959525 7.097582 4.143281 139.999924
31 139.999924 -0.000119 0.000119 1.310017 7.418879 5.178493 139.999924
[Rope3_Seg04]
30 139.999924 0.000119 0.000000 4.217541 10.349595 5.747607 139.999924
31 139.999924 0.000119 0.000000 3.177766 10.825874 7.344435 139.999924
[Rope3_Seg05]
30 139.999924 -0.000238 0.000060 13.593409 17.661781 8.839896 139.999924
31 139.999924 -0.000238 0.000060 13.485576 20.366674 13.119243 139.999924
[Rope3_Seg06]
30 139.999893 -0.000119 -0.000060 6.765433 5.642647 0.915848 139.999893
31 139.999893 -0.000119 -0.000060 14.409372 12.174181 4.509299 139.999893
[Rope3_Seg07]
30 139.999771 0.000060 -0.000119 -8.751858 -11.229107 -2.416133 139.999771
31 139.999771 0.000060 -0.000119 -4.765289 -4.343659 -0.669530 139.999771
[Rope3_Seg08]
30 139.999985 -0.000060 0.000000 -3.522182 -7.661554 -3.070573 139.999985
31 139.999985 -0.000060 0.000000 -5.995078 -6.984535 -1.577199 139.999985
[Rope3_Seg09]
30 90.185997 -0.000179 -0.000060 89.793228 -1.359877 -0.847183 90.185997
31 90.185997 -0.000179 -0.000060 89.793228 -1.359877 -0.847183 90.185997
[R_rear_hand01]
30 103.366196 -6.073594 -10.757982 -161.551193 16.666374 -30.088671 104.101845
31 103.366196 -6.073594 -10.757982 -161.551193 16.666374 -30.088671 104.101845
[R_rear_hand02]
30 100.509819 12.039542 -7.992327 -34.280552 19.289745 28.875523 101.543350
31 100.509819 12.039542 -7.992327 -34.280552 19.289745 28.875523 101.543350
[R_rear_hand03]
30 101.539970 5.215704 5.435467 83.366440 -30.933914 7.284830 101.819031
31 101.539970 5.215704 5.435467 83.366440 -30.933914 7.284830 101.819031
[Rope4_Seg01]
30 0.000010 -0.000587 -0.000153 52.470779 13.459767 112.170654 0.000607
31 0.000010 -0.000610 -0.000153 49.052532 9.189353 122.382690 0.000629
[Rope4_Seg02]
30 139.999985 0.000060 0.000119 5.622099 -21.224575 -18.132669 139.999985
31 139.999985 0.000060 0.000119 6.974900 -15.800629 -17.052057 139.999985
[Rope4_Seg03]
30 139.999924 0.000000 -0.000238 2.373542 -19.041613 -14.814818 139.999924
31 139.999924 0.000000 -0.000238 4.819043 -20.793371 -19.565897 139.999924
[Rope4_Seg04]
30 139.999985 0.000000 0.000119 0.043774 -14.386763 -11.052651 139.999985
31 139.999985 0.000000 0.000119 1.161688 -19.308413 -16.774624 139.999985
[Rope4_Seg05]
30 139.999802 -0.000060 -0.000119 -0.456471 -3.765744 -2.927992 139.999802
31 139.999802 -0.000060 -0.000119 -1.213556 -6.919002 -6.240823 139.999802
[Rope4_Seg06]
30 139.999924 0.000000 0.000060 0.344552 0.924065 0.815542 139.999924
31 139.999924 0.000000 0.000060 -0.509930 -1.038334 -1.403345 139.999924
[Rope4_Seg07]
30 139.999802 0.000000 0.000000 1.450912 6.237625 5.119939 139.999802
31 139.999802 0.000000 0.000000 0.396414 2.840007 1.752978 139.999802
[Rope4_Seg08]
30 139.999924 0.000000 0.000119 -0.667674 5.213970 4.121002 139.999924
31 139.999924 0.000000 0.000119 -0.961965 4.290961 2.821680 139.999924
[Rope4_Seg09]
30 90.185791 0.000060 0.000060 -135.617828 2.228885 0.850567 90.185791
31 90.185791 0.000060 0.000060 -135.617828 2.228885 0.850567 90.185791
[L_rear_hand01]
30 101.696655 -8.392275 -7.654577 -34.454281 -18.946800 151.655121 102.329041
31 101.696655 -8.392275 -7.654577 -34.454281 -18.946800 151.655121 102.329041
[L_rear_hand02]
30 102.726799 -1.568258 5.773216 83.407906 30.330435 172.796509 102.900848
31 102.726799 -1.568258 5.773216 83.407906 30.330435 172.796509 102.900848
[L_rear_hand03]
30 104.552910 9.721220 -10.420293 -161.379868 -16.473232 -150.512238 105.519653
31 104.552910 9.721220 -10.420293 -161.379868 -16.473232 -150.512238 105.519653
